<svg xmlns="http://www.w3.org/2000/svg" fill="none" stroke="#fff" stroke-width="22" viewBox="0 0 300 300">
  <path fill="#639" stroke="none" d="M0 0h250a50 50 0 0 1 50 50v200a50 50 0 0 1-50 50H50a50 50 0 0 1-50-50Z"/>
  <path d="M123 196c0-9-3-24-21-24s-21 15-21 24v48c0 4 3 24 21 24s21-20 21-24" class="C"/>
  <path d="M195 196c0-9-3-24-21-24s-21 15-21 24c0 10 6 18 21 24s21 14 21 24c0 4-3 24-21 24s-21-20-21-24M267 196c0-9-3-24-21-24s-21 15-21 24c0 10 6 18 21 24s21 14 21 24c0 4-3 24-21 24s-21-20-21-24" class="S"/>
</svg>